<svg width="235" height="236" viewBox="0 0 235 236" fill="none" xmlns="http://www.w3.org/2000/svg">
<path d="M56.435 163.582C53.1786 162.396 50.0243 160.921 46.9025 159.295C43.7849 157.663 40.7203 155.847 37.721 153.844C31.7305 149.84 25.9889 145.078 20.7861 139.335C15.5995 133.592 10.9475 126.804 7.49521 118.912C6.63418 116.944 5.83845 114.912 5.14473 112.822C4.78155 111.782 4.47958 110.717 4.15312 109.652C3.86339 108.578 3.55734 107.504 3.3125 106.41C2.25559 102.044 1.62309 97.5117 1.3252 92.9406V84.9608L7.69517 84.5261L7.91552 84.5115L8.05835 84.5066L8.30727 84.5017L8.76023 84.5066C9.04996 84.5164 9.32337 84.531 9.59677 84.5457C10.1354 84.5798 10.6537 84.6384 11.1678 84.6971C12.188 84.824 13.1796 84.9998 14.1549 85.205C16.1055 85.6201 17.9908 86.1768 19.8312 86.841C23.512 88.1791 27.005 89.9763 30.2859 92.1202C36.8558 96.4178 42.528 102.117 47.2739 108.519C52.0197 114.937 55.8637 122.042 59.014 129.426C62.1725 136.815 64.6332 144.502 66.6164 152.291L66.0165 152.575C63.0009 145.313 59.5649 138.344 55.5985 131.946C51.6443 125.549 47.1555 119.722 42.1526 114.883C37.1537 110.053 31.6285 106.234 25.8502 103.846C22.9651 102.654 20.0189 101.809 17.0971 101.365C15.6362 101.145 14.1794 101.018 12.7634 101.013C12.0574 101.008 11.3556 101.033 10.6863 101.087C10.3517 101.116 10.0252 101.15 9.71919 101.194C9.56821 101.218 9.4213 101.243 9.28664 101.267C9.22543 101.282 9.15606 101.297 9.10709 101.311C9.07852 101.316 9.05404 101.326 9.0418 101.331C9.03364 101.336 9.02139 101.336 9.02547 101.34C9.03364 101.34 9.00507 101.35 9.08669 101.34L15.4567 92.9309C14.9058 99.8412 15.5219 106.918 17.4032 113.779C19.268 120.641 22.3612 127.234 26.2664 133.27C30.1798 139.306 34.8726 144.815 40.0184 149.737C42.5933 152.199 45.2825 154.523 48.0696 156.696C50.8567 158.86 53.7377 160.916 56.7166 162.689L56.435 163.582Z" fill="#078080"/>
<path d="M176.976 162.699C179.955 160.927 182.836 158.871 185.623 156.707C188.41 154.534 191.099 152.209 193.674 149.748C198.82 144.825 203.513 139.322 207.426 133.28C211.331 127.244 214.425 120.651 216.289 113.79C218.171 106.933 218.787 99.852 218.236 92.9416L224.606 101.351C224.683 101.356 224.659 101.351 224.667 101.351C224.675 101.351 224.659 101.346 224.651 101.341C224.639 101.337 224.614 101.327 224.585 101.322C224.536 101.307 224.467 101.293 224.406 101.278C224.271 101.254 224.124 101.229 223.973 101.205C223.667 101.161 223.337 101.127 223.006 101.097C222.337 101.044 221.639 101.019 220.929 101.024C219.513 101.034 218.056 101.156 216.595 101.376C213.67 101.82 210.727 102.665 207.842 103.857C202.064 106.245 196.543 110.064 191.54 114.894C186.537 119.733 182.048 125.559 178.094 131.957C174.128 138.355 170.688 145.323 167.676 152.585L167.076 152.302C169.059 144.508 171.524 136.826 174.679 129.437C177.829 122.053 181.673 114.947 186.419 108.53C191.165 102.133 196.837 96.4285 203.407 92.1309C206.688 89.987 210.181 88.1898 213.861 86.8517C215.702 86.1875 217.591 85.6259 219.538 85.2157C220.513 85.0106 221.505 84.8348 222.525 84.7078C223.039 84.6443 223.557 84.5906 224.096 84.5564C224.365 84.5369 224.643 84.5222 224.932 84.5173L225.385 84.5125L225.638 84.5173L225.781 84.5222L226.001 84.5369L232.371 84.9715V92.9514C232.074 97.5176 231.441 102.054 230.384 106.42C230.139 107.514 229.829 108.589 229.543 109.663C229.221 110.728 228.919 111.792 228.552 112.833C227.862 114.923 227.067 116.954 226.201 118.923C222.749 126.815 218.097 133.603 212.911 139.346C207.708 145.089 201.97 149.851 195.976 153.855C192.976 155.857 189.916 157.674 186.794 159.305C183.672 160.932 180.518 162.406 177.262 163.593L176.976 162.699Z" fill="#078080"/>
<path d="M56.012 206.158C56.012 206.158 81.5286 201.186 100.904 224.008C100.904 224.008 39.9299 259.399 0.0615234 205.87C0.0615234 205.87 10.7611 179.649 52.017 176.607C93.7462 173.53 113.713 196.498 131.338 206.534C142.727 213.019 173.916 236.959 217.885 206.534C217.885 206.534 199.685 184.919 159.539 193.402C159.539 193.402 165.236 200.722 178.294 205.293C178.294 205.293 153.01 212.023 133.145 187.751C133.145 187.751 158.846 169.379 191.561 177.857C224.275 186.335 234.485 205.289 234.485 205.289C234.485 205.289 223.859 232.056 184.476 235.377C154.145 237.936 137.165 227.729 130.958 222.899C127.893 220.516 124.743 218.299 121.495 216.291C109.951 209.152 89.1187 196.962 81.3286 194.808C74.2241 192.845 48.4056 181.251 16.9393 205.489C16.9393 205.489 30.8994 225.981 76.1176 219.002C76.1176 219.002 64.4509 208.028 56.012 206.158Z" fill="#078080"/>
<path d="M142.037 39.7825C128.979 21.9914 117.17 0.547363 117.17 0.547363L87.9967 46.1849C87.9967 46.1849 65.4916 82.3434 76.9543 125.984C88.4129 169.624 107.613 181.335 117.17 181.593C126.755 181.857 152.594 157.654 158.013 123.903C163.428 90.1572 155.096 57.5687 142.037 39.7825ZM140.993 105.384C137.838 130.447 122.638 149.899 117.239 148.229C112.477 146.759 101.026 141.748 94.3626 109.335C87.6988 76.9225 100.271 47.6598 100.271 47.6598L117.239 13.7625C117.239 13.7625 124.107 29.6929 131.701 42.9031C139.295 56.1183 144.143 80.3167 140.993 105.384Z" fill="#078080"/>
<path d="M117.115 124.859C124.28 124.859 130.088 117.909 130.088 109.334C130.088 100.76 124.28 93.8093 117.115 93.8093C109.951 93.8093 104.143 100.76 104.143 109.334C104.143 117.909 109.951 124.859 117.115 124.859Z" fill="#078080"/>
</svg>
