<svg width="48" height="48" viewBox="0 0 48 48" fill="none" xmlns="http://www.w3.org/2000/svg">
<path d="M24 45.5C12.14 45.5 2.5 35.86 2.5 24C2.5 19.28 4 14.8 6.84 11.04C7.34 10.38 8.28 10.26 8.94 10.76C9.6 11.26 9.74 12.2 9.24 12.86C6.8 16.08 5.5 19.94 5.5 24C5.5 34.2 13.8 42.5 24 42.5C34.2 42.5 42.5 34.2 42.5 24C42.5 13.8 34.2 5.5 24 5.5C23.18 5.5 22.5 4.82 22.5 4C22.5 3.18 23.18 2.5 24 2.5C35.86 2.5 45.5 12.14 45.5 24C45.5 35.86 35.86 45.5 24 45.5Z" fill="#F7F7F7"/>
<path d="M24 39.5C15.46 39.5 8.5 32.54 8.5 24C8.5 23.18 9.18 22.5 10 22.5C10.82 22.5 11.5 23.18 11.5 24C11.5 30.9 17.1 36.5 24 36.5C30.9 36.5 36.5 30.9 36.5 24C36.5 17.1 30.9 11.5 24 11.5C23.18 11.5 22.5 10.82 22.5 10C22.5 9.18 23.18 8.5 24 8.5C32.54 8.5 39.5 15.46 39.5 24C39.5 32.54 32.54 39.5 24 39.5Z" fill="#F7F7F7"/>
<path d="M24 33.5C23.18 33.5 22.5 32.82 22.5 32C22.5 31.18 23.18 30.5 24 30.5C27.58 30.5 30.5 27.58 30.5 24C30.5 20.42 27.58 17.5 24 17.5C23.18 17.5 22.5 16.82 22.5 16C22.5 15.18 23.18 14.5 24 14.5C29.24 14.5 33.5 18.76 33.5 24C33.5 29.24 29.24 33.5 24 33.5Z" fill="#F7F7F7"/>
</svg>
