<svg width="48" height="48" viewBox="0 0 48 48" fill="none" xmlns="http://www.w3.org/2000/svg">
<path d="M30 45.5H18C7.14 45.5 2.5 40.86 2.5 30V18C2.5 7.14 7.14 2.5 18 2.5H30C40.86 2.5 45.5 7.14 45.5 18V30C45.5 40.86 40.86 45.5 30 45.5ZM18 5.5C8.78 5.5 5.5 8.78 5.5 18V30C5.5 39.22 8.78 42.5 18 42.5H30C39.22 42.5 42.5 39.22 42.5 30V18C42.5 8.78 39.22 5.5 30 5.5H18Z" fill="#F7F7F7"/>
<path d="M31 21C28.52 21 26.5 18.98 26.5 16.5C26.5 14.02 28.52 12 31 12C33.48 12 35.5 14.02 35.5 16.5C35.5 18.98 33.48 21 31 21ZM31 15C30.18 15 29.5 15.68 29.5 16.5C29.5 17.32 30.18 18 31 18C31.82 18 32.5 17.32 32.5 16.5C32.5 15.68 31.82 15 31 15Z" fill="#F7F7F7"/>
<path d="M17 21C14.52 21 12.5 18.98 12.5 16.5C12.5 14.02 14.52 12 17 12C19.48 12 21.5 14.02 21.5 16.5C21.5 18.98 19.48 21 17 21ZM17 15C16.18 15 15.5 15.68 15.5 16.5C15.5 17.32 16.18 18 17 18C17.82 18 18.5 17.32 18.5 16.5C18.5 15.68 17.82 15 17 15Z" fill="#F7F7F7"/>
<path d="M24 38.9001C18.2 38.9001 13.5 34.1801 13.5 28.4001C13.5 26.5801 14.98 25.1001 16.8 25.1001H31.2C33.02 25.1001 34.5 26.5801 34.5 28.4001C34.5 34.1801 29.8 38.9001 24 38.9001ZM16.8 28.1001C16.64 28.1001 16.5 28.2401 16.5 28.4001C16.5 32.5401 19.86 35.9001 24 35.9001C28.14 35.9001 31.5 32.5401 31.5 28.4001C31.5 28.2401 31.36 28.1001 31.2 28.1001H16.8Z" fill="#F7F7F7"/>
</svg>
