<svg width="1292" height="241" viewBox="0 0 1292 241" fill="none" xmlns="http://www.w3.org/2000/svg">
<path d="M309.373 156.979V74.9622H324.126L374.886 140.226V74.9622H389.64V156.979H401.767V162.355H373.636L324.126 98.5922V162.355H297.245V156.979H309.373ZM413.887 156.979V74.9622H428.64V156.979H440.767V162.355H401.759V156.979H413.887ZM534.852 156.979V162.355H507.847L486.967 132.974H467.588V162.355H440.708V156.979H452.835V74.9622H485.342C498.678 74.9622 508.222 77.2127 513.973 81.7137C519.724 86.2146 522.6 93.4244 522.6 103.343C522.6 117.763 516.307 126.848 503.721 130.599L522.725 156.979H534.852ZM485.967 119.597C494.302 119.597 499.97 118.305 502.971 115.721C505.971 113.137 507.472 109.011 507.472 103.343C507.472 97.592 505.93 93.6745 502.846 91.5907C499.762 89.4236 494.261 88.34 486.342 88.34H467.588V119.597H485.967ZM619.187 156.979V162.355H531.669V156.979H564.926L532.044 74.9622H548.548L575.428 140.226L602.309 74.9622H618.812L585.805 156.979H619.187ZM724.109 156.979V162.355H696.228L687.476 142.476H643.717L634.965 162.355H607.084V156.979H621.587L657.72 74.9622H673.473L709.606 156.979H724.109ZM681.475 128.848L665.596 92.841L649.718 128.848H681.475ZM724.132 156.979V74.9622H738.885L789.646 140.226V74.9622H804.399V156.979H816.526V162.355H788.395L738.885 98.5922V162.355H712.005V156.979H724.132ZM921.415 156.979V162.355H893.535L884.783 142.476H841.024L832.272 162.355H804.391V156.979H818.894L855.027 74.9622H870.78L906.912 156.979H921.415ZM878.782 128.848L862.903 92.841L847.025 128.848H878.782ZM940.818 156.979V127.848L908.311 74.9622H924.439L948.319 114.721L972.199 74.9622H988.328L955.821 127.848V156.979H987.328V162.355H909.311V156.979H940.818ZM1092.35 156.979V162.355H987.33V156.979H1015.96C1009.13 153.062 1003.71 147.686 999.708 140.851C995.791 134.016 993.832 126.39 993.832 117.971C993.832 105.135 998.249 94.4246 1007.08 85.8395C1015.92 77.171 1026.84 72.8368 1039.84 72.8368C1052.84 72.8368 1063.76 77.171 1072.6 85.8395C1081.43 94.4246 1085.85 105.135 1085.85 117.971C1085.85 126.306 1083.85 133.933 1079.85 140.851C1075.93 147.769 1070.56 153.145 1063.72 156.979H1092.35ZM1061.72 95.5916C1055.8 89.4236 1048.51 86.3396 1039.84 86.3396C1031.17 86.3396 1023.84 89.4236 1017.84 95.5916C1011.92 101.76 1008.96 109.261 1008.96 118.096C1008.96 126.848 1011.92 134.308 1017.84 140.476C1023.84 146.644 1031.17 149.728 1039.84 149.728C1048.51 149.728 1055.8 146.644 1061.72 140.476C1067.72 134.308 1070.72 126.848 1070.72 118.096C1070.72 109.261 1067.72 101.76 1061.72 95.5916ZM1186.98 156.979V162.355H1092.33V156.979H1122.59C1115.34 153.312 1109.54 147.936 1105.21 140.851C1100.96 133.766 1098.83 125.765 1098.83 116.846C1098.83 104.093 1103.25 93.5911 1112.09 85.3394C1120.92 77.0043 1131.63 72.8368 1144.22 72.8368C1156.89 72.8368 1167.39 76.5042 1175.73 83.8391L1167.85 95.0914C1164.43 92.1742 1160.97 90.1738 1157.47 89.0902C1154.05 87.9233 1150.05 87.3398 1145.47 87.3398C1136.55 87.3398 1129.09 90.0071 1123.09 95.3415C1117.17 100.676 1114.21 107.969 1114.21 117.221C1114.21 126.473 1117.13 133.933 1122.96 139.601C1128.8 145.185 1135.84 147.977 1144.09 147.977C1152.43 147.977 1159.39 146.185 1164.97 142.601V118.596H1179.73V148.478C1176.64 151.895 1172.89 154.729 1168.47 156.979H1186.98ZM1291.85 156.979V162.355H1263.97L1255.22 142.476H1211.46L1202.71 162.355H1174.83V156.979H1189.33L1225.47 74.9622H1241.22L1277.35 156.979H1291.85ZM1249.22 128.848L1233.34 92.841L1217.46 128.848H1249.22Z" fill="black"/>
<path d="M56.435 168.582C53.1786 167.396 50.0243 165.921 46.9025 164.295C43.7849 162.663 40.7203 160.847 37.721 158.844C31.7305 154.84 25.9889 150.078 20.7861 144.335C15.5995 138.592 10.9475 131.804 7.49521 123.912C6.63418 121.944 5.83845 119.912 5.14473 117.822C4.78155 116.782 4.47958 115.717 4.15312 114.652C3.86339 113.578 3.55734 112.504 3.3125 111.41C2.25559 107.044 1.62309 102.512 1.3252 97.9406V89.9608L7.69517 89.5261L7.91552 89.5115L8.05835 89.5066L8.30727 89.5017L8.76023 89.5066C9.04996 89.5164 9.32337 89.531 9.59677 89.5457C10.1354 89.5798 10.6537 89.6384 11.1678 89.6971C12.188 89.824 13.1796 89.9998 14.1549 90.205C16.1055 90.6201 17.9908 91.1768 19.8312 91.841C23.512 93.1791 27.005 94.9763 30.2859 97.1202C36.8558 101.418 42.528 107.117 47.2739 113.519C52.0197 119.937 55.8637 127.042 59.014 134.426C62.1725 141.815 64.6332 149.502 66.6164 157.291L66.0165 157.575C63.0009 150.313 59.5649 143.344 55.5985 136.946C51.6443 130.549 47.1555 124.722 42.1526 119.883C37.1537 115.053 31.6285 111.234 25.8502 108.846C22.9651 107.654 20.0189 106.809 17.0971 106.365C15.6362 106.145 14.1794 106.018 12.7634 106.013C12.0574 106.008 11.3556 106.033 10.6863 106.087C10.3517 106.116 10.0252 106.15 9.71919 106.194C9.56821 106.218 9.4213 106.243 9.28664 106.267C9.22543 106.282 9.15606 106.297 9.10709 106.311C9.07852 106.316 9.05404 106.326 9.0418 106.331C9.03364 106.336 9.02139 106.336 9.02547 106.34C9.03364 106.34 9.00507 106.35 9.08669 106.34L15.4567 97.9309C14.9058 104.841 15.5219 111.918 17.4032 118.779C19.268 125.641 22.3612 132.234 26.2664 138.27C30.1798 144.306 34.8726 149.815 40.0184 154.737C42.5933 157.199 45.2825 159.523 48.0696 161.696C50.8567 163.86 53.7377 165.916 56.7166 167.689L56.435 168.582Z" fill="#078080"/>
<path d="M176.976 167.699C179.955 165.927 182.836 163.871 185.623 161.707C188.41 159.534 191.099 157.209 193.674 154.748C198.82 149.825 203.513 144.322 207.426 138.28C211.331 132.244 214.425 125.651 216.289 118.79C218.171 111.933 218.787 104.852 218.236 97.9416L224.606 106.351C224.683 106.356 224.659 106.351 224.667 106.351C224.675 106.351 224.659 106.346 224.651 106.341C224.639 106.337 224.614 106.327 224.585 106.322C224.536 106.307 224.467 106.293 224.406 106.278C224.271 106.254 224.124 106.229 223.973 106.205C223.667 106.161 223.337 106.127 223.006 106.097C222.337 106.044 221.639 106.019 220.929 106.024C219.513 106.034 218.056 106.156 216.595 106.376C213.67 106.82 210.727 107.665 207.842 108.857C202.064 111.245 196.543 115.064 191.54 119.894C186.537 124.733 182.048 130.559 178.094 136.957C174.128 143.355 170.688 150.323 167.676 157.585L167.076 157.302C169.059 149.508 171.524 141.826 174.679 134.437C177.829 127.053 181.673 119.947 186.419 113.53C191.165 107.133 196.837 101.429 203.407 97.1309C206.688 94.987 210.181 93.1898 213.861 91.8517C215.702 91.1875 217.591 90.6259 219.538 90.2157C220.513 90.0106 221.505 89.8348 222.525 89.7078C223.039 89.6443 223.557 89.5906 224.096 89.5564C224.365 89.5369 224.643 89.5222 224.932 89.5173L225.385 89.5125L225.638 89.5173L225.781 89.5222L226.001 89.5369L232.371 89.9715V97.9514C232.074 102.518 231.441 107.054 230.384 111.42C230.139 112.514 229.829 113.589 229.543 114.663C229.221 115.728 228.919 116.792 228.552 117.833C227.862 119.923 227.067 121.954 226.201 123.923C222.749 131.815 218.097 138.603 212.911 144.346C207.708 150.089 201.97 154.851 195.976 158.855C192.976 160.857 189.916 162.674 186.794 164.305C183.672 165.932 180.518 167.406 177.262 168.593L176.976 167.699Z" fill="#078080"/>
<path d="M56.012 211.158C56.012 211.158 81.5286 206.186 100.904 229.008C100.904 229.008 39.9299 264.399 0.0615234 210.87C0.0615234 210.87 10.7611 184.649 52.017 181.607C93.7462 178.53 113.713 201.498 131.338 211.534C142.727 218.019 173.916 241.959 217.885 211.534C217.885 211.534 199.685 189.919 159.539 198.402C159.539 198.402 165.236 205.722 178.294 210.293C178.294 210.293 153.01 217.023 133.145 192.751C133.145 192.751 158.846 174.379 191.561 182.857C224.275 191.335 234.485 210.289 234.485 210.289C234.485 210.289 223.859 237.056 184.476 240.377C154.145 242.936 137.165 232.729 130.958 227.899C127.893 225.516 124.743 223.299 121.495 221.291C109.951 214.152 89.1187 201.962 81.3286 199.808C74.2241 197.845 48.4056 186.251 16.9393 210.489C16.9393 210.489 30.8994 230.981 76.1176 224.002C76.1176 224.002 64.4509 213.028 56.012 211.158Z" fill="#078080"/>
<path d="M142.037 44.7825C128.979 26.9914 117.17 5.54736 117.17 5.54736L87.9967 51.1849C87.9967 51.1849 65.4916 87.3434 76.9543 130.984C88.4129 174.624 107.613 186.335 117.17 186.593C126.755 186.857 152.594 162.654 158.013 128.903C163.428 95.1572 155.096 62.5687 142.037 44.7825ZM140.993 110.384C137.838 135.447 122.638 154.899 117.239 153.229C112.477 151.759 101.026 146.748 94.3626 114.335C87.6988 81.9225 100.271 52.6598 100.271 52.6598L117.239 18.7625C117.239 18.7625 124.107 34.6929 131.701 47.9031C139.295 61.1183 144.143 85.3167 140.993 110.384Z" fill="#078080"/>
<path d="M117.115 129.859C124.28 129.859 130.088 122.909 130.088 114.334C130.088 105.76 124.28 98.8093 117.115 98.8093C109.951 98.8093 104.143 105.76 104.143 114.334C104.143 122.909 109.951 129.859 117.115 129.859Z" fill="#078080"/>
</svg>
