<svg width="48" height="48" viewBox="0 0 48 48" fill="none" xmlns="http://www.w3.org/2000/svg">
<path d="M36.1199 44.3202H11.88C7.97995 44.3202 4.99995 42.9002 3.47995 40.3402C1.97995 37.7802 2.17995 34.4802 4.07995 31.0802L16.2 9.26018C18.2 5.66018 20.96 3.68018 24 3.68018C27.04 3.68018 29.8 5.66018 31.8 9.26018L43.9199 31.0802C45.82 34.5002 46.04 37.7802 44.52 40.3402C43 42.9002 40.02 44.3202 36.1199 44.3202ZM24 6.68018C22.12 6.68018 20.28 8.12018 18.82 10.7202L6.71995 32.5402C5.35995 34.9802 5.13995 37.2202 6.07995 38.8402C7.01995 40.4402 9.09995 41.3402 11.9 41.3402H36.1399C38.9399 41.3402 41 40.4602 41.9599 38.8402C42.8999 37.2202 42.68 35.0002 41.32 32.5402L29.18 10.7202C27.72 8.12018 25.88 6.68018 24 6.68018Z" fill="#F7F7F7"/>
<path d="M42.8802 41.5C42.5802 41.5 42.2802 41.42 42.0202 41.22L24.0002 28.6L5.98022 41.22C5.30022 41.7 4.36022 41.54 3.90022 40.86C3.42022 40.18 3.58022 39.24 4.26022 38.78L23.1402 25.56C23.6602 25.2 24.3402 25.2 24.8602 25.56L43.7402 38.78C44.4202 39.26 44.5802 40.2 44.1002 40.86C43.8202 41.28 43.3602 41.5 42.8802 41.5Z" fill="#F7F7F7"/>
<path d="M24 28.28C23.18 28.28 22.5 27.6 22.5 26.78V6C22.5 5.18 23.18 4.5 24 4.5C24.82 4.5 25.5 5.18 25.5 6V26.78C25.5 27.6 24.82 28.28 24 28.28Z" fill="#F7F7F7"/>
</svg>
